<svg width="94" height="94" viewBox="0 0 94 94" fill="none" xmlns="http://www.w3.org/2000/svg">
<rect x="93.0833" width="93.0833" height="93.0833" rx="10" transform="rotate(90 93.0833 0)" fill="#2E3192"/>
<path d="M26.7219 31.7218H39.2219M54.2219 31.7218C48.8522 31.7218 40.4719 31.7218 40.4719 31.7218H39.2219M39.2219 31.7218C39.2219 31.7218 39.2219 50.6173 39.2219 57.9656C39.2219 65.3138 61.7219 63.2143 61.7219 57.9656C61.7219 52.7168 61.7219 50.9431 61.7219 48.5178C61.7219 46.0926 50.4719 47.4681 50.4719 47.4681" stroke="#F7F7F7" stroke-width="5"/>
<path d="M26.7219 31.7218H39.2219M54.2219 31.7218C48.8522 31.7218 40.4719 31.7218 40.4719 31.7218H39.2219M39.2219 31.7218C39.2219 31.7218 39.2219 50.6173 39.2219 57.9656C39.2219 65.3138 61.7219 63.2143 61.7219 57.9656C61.7219 52.7168 61.7219 50.9431 61.7219 48.5178C61.7219 46.0926 50.4719 47.4681 50.4719 47.4681" stroke="#F7F7F7" stroke-width="5"/>
</svg>
