<svg width="74" height="57" viewBox="0 0 74 57" fill="none" xmlns="http://www.w3.org/2000/svg">
<path d="M32 55.5L0.5 41.5V21.5L32 33.5V55.5Z" fill="#2C2C2C"/>
<path d="M72 21.5L40.5 33.5V55.5L72 41.5V21.5Z" fill="#2C2C2C"/>
<path fill-rule="evenodd" clip-rule="evenodd" d="M0.5 12.5L35.5 25L72 12.5L66.5 10.8194L35.5 21L6 10.3732L0.5 12V12.5ZM36 1.5L21 5.93662L35 11.5L51 6.08333L36 1.5Z" fill="#2C2C2C"/>
<path d="M21 5.93662L36 1.5L51 6.08333M21 5.93662L35 11.5L51 6.08333M21 5.93662L6 10.3732M51 6.08333L66.5 10.8194M6 10.3732L0.5 12V12.5L35.5 25L72 12.5L66.5 10.8194M6 10.3732L35.5 21L66.5 10.8194M0.5 41.5L32 55.5V33.5L0.5 21.5V41.5ZM40.5 33.5L72 21.5V41.5L40.5 55.5V33.5Z" stroke="#2C2C2C"/>
</svg>
